<?xml version="1.0" encoding="UTF-8" standalone="no"?><svg xmlns="http://www.w3.org/2000/svg" xmlns:xlink="http://www.w3.org/1999/xlink" contentScriptType="application/ecmascript" contentStyleType="text/css" height="379px" preserveAspectRatio="none" style="width:841px;height:379px;" version="1.1" viewBox="0 0 841 379" width="841px" zoomAndPan="magnify"><defs><filter height="300%" id="f1ti3l0uldxpuk" width="300%" x="-1" y="-1"><feGaussianBlur result="blurOut" stdDeviation="2.0"/><feColorMatrix in="blurOut" result="blurOut2" type="matrix" values="0 0 0 0 0 0 0 0 0 0 0 0 0 0 0 0 0 0 .4 0"/><feOffset dx="4.0" dy="4.0" in="blurOut2" result="blurOut3"/><feBlend in="SourceGraphic" in2="blurOut3" mode="normal"/></filter></defs><g><ellipse cx="420" cy="20" fill="#000000" filter="url(#f1ti3l0uldxpuk)" rx="10" ry="10" style="stroke: none; stroke-width: 1.0;"/><rect fill="#000000" filter="url(#f1ti3l0uldxpuk)" height="6" rx="2.5" ry="2.5" style="stroke: #000000; stroke-width: 1.0;" width="820" x="10" y="50"/><rect fill="#FEFECE" filter="url(#f1ti3l0uldxpuk)" height="33.9688" rx="12.5" ry="12.5" style="stroke: #A80036; stroke-width: 1.5;" width="145" x="220" y="76"/><text fill="#000000" font-family="sans-serif" font-size="12" lengthAdjust="spacingAndGlyphs" textLength="125" x="230" y="97.1387">Get book by id book</text><rect fill="#000000" filter="url(#f1ti3l0uldxpuk)" height="6" rx="2.5" ry="2.5" style="stroke: #000000; stroke-width: 1.0;" width="537" x="24" y="144.9688"/><rect fill="#FEFECE" filter="url(#f1ti3l0uldxpuk)" height="33.9688" rx="12.5" ry="12.5" style="stroke: #A80036; stroke-width: 1.5;" width="112" x="38" y="206.9688"/><text fill="#000000" font-family="sans-serif" font-size="12" lengthAdjust="spacingAndGlyphs" textLength="92" x="48" y="228.1074">Add book data</text><rect fill="#FEFECE" filter="url(#f1ti3l0uldxpuk)" height="33.9688" rx="12.5" ry="12.5" style="stroke: #A80036; stroke-width: 1.5;" width="167" x="178" y="206.9688"/><text fill="#000000" font-family="sans-serif" font-size="12" lengthAdjust="spacingAndGlyphs" textLength="147" x="188" y="228.1074">Get author by id author</text><rect fill="#FEFECE" filter="url(#f1ti3l0uldxpuk)" height="33.9688" rx="12.5" ry="12.5" style="stroke: #A80036; stroke-width: 1.5;" width="128" x="402" y="218.9688"/><text fill="#000000" font-family="sans-serif" font-size="12" lengthAdjust="spacingAndGlyphs" textLength="108" x="412" y="240.1074">Get chapter by id</text><polygon fill="#FEFECE" filter="url(#f1ti3l0uldxpuk)" points="409,170.9688,523,170.9688,535,182.9688,523,194.9688,409,194.9688,397,182.9688,409,170.9688" style="stroke: #A80036; stroke-width: 1.5;"/><text fill="#000000" font-family="sans-serif" font-size="11" lengthAdjust="spacingAndGlyphs" textLength="114" x="409" y="186.7769">For every id chapter</text><rect fill="#000000" filter="url(#f1ti3l0uldxpuk)" height="6" rx="2.5" ry="2.5" style="stroke: #000000; stroke-width: 1.0;" width="537" x="24" y="296.9375"/><rect fill="#FEFECE" filter="url(#f1ti3l0uldxpuk)" height="33.9688" rx="12.5" ry="12.5" style="stroke: #A80036; stroke-width: 1.5;" width="147" x="641.5" y="106"/><text fill="#000000" font-family="sans-serif" font-size="12" lengthAdjust="spacingAndGlyphs" textLength="127" x="651.5" y="127.1387">Get sales by id book</text><polygon fill="#FEFECE" filter="url(#f1ti3l0uldxpuk)" points="677,174.9688,753,174.9688,765,186.9688,753,198.9688,677,198.9688,665,186.9688,677,174.9688" style="stroke: #A80036; stroke-width: 1.5;"/><text fill="#000000" font-family="sans-serif" font-size="11" lengthAdjust="spacingAndGlyphs" textLength="68" x="681" y="190.7769">exits sales?</text><text fill="#000000" font-family="sans-serif" font-size="11" lengthAdjust="spacingAndGlyphs" textLength="20" x="645" y="184.3745">yes</text><text fill="#000000" font-family="sans-serif" font-size="11" lengthAdjust="spacingAndGlyphs" textLength="14" x="765" y="184.3745">no</text><rect fill="#FEFECE" filter="url(#f1ti3l0uldxpuk)" height="33.9688" rx="12.5" ry="12.5" style="stroke: #A80036; stroke-width: 1.5;" width="112" x="599" y="208.9688"/><text fill="#000000" font-family="sans-serif" font-size="12" lengthAdjust="spacingAndGlyphs" textLength="88" x="613" y="230.1074">add info sales</text><rect fill="#FEFECE" filter="url(#f1ti3l0uldxpuk)" height="33.9688" rx="12.5" ry="12.5" style="stroke: #A80036; stroke-width: 1.5;" width="62" x="744" y="208.9688"/><text fill="#000000" font-family="sans-serif" font-size="12" lengthAdjust="spacingAndGlyphs" textLength="38" x="758" y="230.1074">empty</text><polygon fill="#FEFECE" filter="url(#f1ti3l0uldxpuk)" points="715,248.9375,727,260.9375,715,272.9375,703,260.9375,715,248.9375" style="stroke: #A80036; stroke-width: 1.5;"/><rect fill="#000000" filter="url(#f1ti3l0uldxpuk)" height="6" rx="2.5" ry="2.5" style="stroke: #000000; stroke-width: 1.0;" width="820" x="10" y="322.9375"/><ellipse cx="420" cy="358.9375" fill="none" filter="url(#f1ti3l0uldxpuk)" rx="10" ry="10" style="stroke: #000000; stroke-width: 1.0;"/><ellipse cx="420.5" cy="359.4375" fill="#000000" filter="url(#f1ti3l0uldxpuk)" rx="6" ry="6" style="stroke: none; stroke-width: 1.0;"/><line style="stroke: #A80036; stroke-width: 1.5;" x1="466" x2="466" y1="194.9688" y2="218.9688"/><polygon fill="#A80036" points="462,208.9688,466,218.9688,470,208.9688,466,212.9688" style="stroke: #A80036; stroke-width: 1.0;"/><line style="stroke: #A80036; stroke-width: 1.5;" x1="466" x2="466" y1="252.9375" y2="264.9375"/><line style="stroke: #A80036; stroke-width: 1.5;" x1="466" x2="547" y1="264.9375" y2="264.9375"/><polygon fill="#A80036" points="543,233.9531,547,223.9531,551,233.9531,547,229.9531" style="stroke: #A80036; stroke-width: 1.5;"/><line style="stroke: #A80036; stroke-width: 1.5;" x1="547" x2="547" y1="182.9688" y2="264.9375"/><line style="stroke: #A80036; stroke-width: 1.5;" x1="547" x2="535" y1="182.9688" y2="182.9688"/><polygon fill="#A80036" points="545,178.9688,535,182.9688,545,186.9688,541,182.9688" style="stroke: #A80036; stroke-width: 1.0;"/><line style="stroke: #A80036; stroke-width: 1.5;" x1="397" x2="385" y1="182.9688" y2="182.9688"/><polygon fill="#A80036" points="381,219.9531,385,229.9531,389,219.9531,385,223.9531" style="stroke: #A80036; stroke-width: 1.5;"/><line style="stroke: #A80036; stroke-width: 1.5;" x1="385" x2="385" y1="182.9688" y2="276.9375"/><line style="stroke: #A80036; stroke-width: 1.5;" x1="385" x2="466" y1="276.9375" y2="276.9375"/><line style="stroke: #A80036; stroke-width: 1.5;" x1="466" x2="466" y1="276.9375" y2="296.9375"/><polygon fill="#A80036" points="462,286.9375,466,296.9375,470,286.9375,466,290.9375" style="stroke: #A80036; stroke-width: 1.0;"/><line style="stroke: #A80036; stroke-width: 1.5;" x1="94" x2="94" y1="150.9688" y2="206.9688"/><polygon fill="#A80036" points="90,196.9688,94,206.9688,98,196.9688,94,200.9688" style="stroke: #A80036; stroke-width: 1.0;"/><line style="stroke: #A80036; stroke-width: 1.5;" x1="261.5" x2="261.5" y1="150.9688" y2="206.9688"/><polygon fill="#A80036" points="257.5,196.9688,261.5,206.9688,265.5,196.9688,261.5,200.9688" style="stroke: #A80036; stroke-width: 1.0;"/><line style="stroke: #A80036; stroke-width: 1.5;" x1="466" x2="466" y1="150.9688" y2="170.9688"/><polygon fill="#A80036" points="462,160.9688,466,170.9688,470,160.9688,466,164.9688" style="stroke: #A80036; stroke-width: 1.0;"/><line style="stroke: #A80036; stroke-width: 1.5;" x1="94" x2="94" y1="240.9375" y2="296.9375"/><polygon fill="#A80036" points="90,286.9375,94,296.9375,98,286.9375,94,290.9375" style="stroke: #A80036; stroke-width: 1.0;"/><line style="stroke: #A80036; stroke-width: 1.5;" x1="261.5" x2="261.5" y1="240.9375" y2="296.9375"/><polygon fill="#A80036" points="257.5,286.9375,261.5,296.9375,265.5,286.9375,261.5,290.9375" style="stroke: #A80036; stroke-width: 1.0;"/><line style="stroke: #A80036; stroke-width: 1.5;" x1="292.5" x2="292.5" y1="109.9688" y2="144.9688"/><polygon fill="#A80036" points="288.5,134.9688,292.5,144.9688,296.5,134.9688,292.5,138.9688" style="stroke: #A80036; stroke-width: 1.0;"/><line style="stroke: #A80036; stroke-width: 1.5;" x1="665" x2="655" y1="186.9688" y2="186.9688"/><line style="stroke: #A80036; stroke-width: 1.5;" x1="655" x2="655" y1="186.9688" y2="208.9688"/><polygon fill="#A80036" points="651,198.9688,655,208.9688,659,198.9688,655,202.9688" style="stroke: #A80036; stroke-width: 1.0;"/><line style="stroke: #A80036; stroke-width: 1.5;" x1="765" x2="775" y1="186.9688" y2="186.9688"/><line style="stroke: #A80036; stroke-width: 1.5;" x1="775" x2="775" y1="186.9688" y2="208.9688"/><polygon fill="#A80036" points="771,198.9688,775,208.9688,779,198.9688,775,202.9688" style="stroke: #A80036; stroke-width: 1.0;"/><line style="stroke: #A80036; stroke-width: 1.5;" x1="655" x2="655" y1="242.9375" y2="260.9375"/><line style="stroke: #A80036; stroke-width: 1.5;" x1="655" x2="703" y1="260.9375" y2="260.9375"/><polygon fill="#A80036" points="693,256.9375,703,260.9375,693,264.9375,697,260.9375" style="stroke: #A80036; stroke-width: 1.0;"/><line style="stroke: #A80036; stroke-width: 1.5;" x1="775" x2="775" y1="242.9375" y2="260.9375"/><line style="stroke: #A80036; stroke-width: 1.5;" x1="775" x2="727" y1="260.9375" y2="260.9375"/><polygon fill="#A80036" points="737,256.9375,727,260.9375,737,264.9375,733,260.9375" style="stroke: #A80036; stroke-width: 1.0;"/><line style="stroke: #A80036; stroke-width: 1.5;" x1="715" x2="715" y1="139.9688" y2="174.9688"/><polygon fill="#A80036" points="711,164.9688,715,174.9688,719,164.9688,715,168.9688" style="stroke: #A80036; stroke-width: 1.0;"/><line style="stroke: #A80036; stroke-width: 1.5;" x1="292.5" x2="292.5" y1="56" y2="76"/><polygon fill="#A80036" points="288.5,66,292.5,76,296.5,66,292.5,70" style="stroke: #A80036; stroke-width: 1.0;"/><line style="stroke: #A80036; stroke-width: 1.5;" x1="715" x2="715" y1="56" y2="106"/><polygon fill="#A80036" points="711,96,715,106,719,96,715,100" style="stroke: #A80036; stroke-width: 1.0;"/><line style="stroke: #A80036; stroke-width: 1.5;" x1="292.5" x2="292.5" y1="302.9375" y2="322.9375"/><polygon fill="#A80036" points="288.5,312.9375,292.5,322.9375,296.5,312.9375,292.5,316.9375" style="stroke: #A80036; stroke-width: 1.0;"/><line style="stroke: #A80036; stroke-width: 1.5;" x1="715" x2="715" y1="272.9375" y2="322.9375"/><polygon fill="#A80036" points="711,312.9375,715,322.9375,719,312.9375,715,316.9375" style="stroke: #A80036; stroke-width: 1.0;"/><line style="stroke: #A80036; stroke-width: 1.5;" x1="420" x2="420" y1="30" y2="50"/><polygon fill="#A80036" points="416,40,420,50,424,40,420,44" style="stroke: #A80036; stroke-width: 1.0;"/><line style="stroke: #A80036; stroke-width: 1.5;" x1="420" x2="420" y1="328.9375" y2="348.9375"/><polygon fill="#A80036" points="416,338.9375,420,348.9375,424,338.9375,420,342.9375" style="stroke: #A80036; stroke-width: 1.0;"/><!--
@startuml
start
fork
 :Get book by id book;
 fork
  :Add book data;
 fork again
  :Get author by id author;
 fork again
  while (For every id chapter)
  :Get chapter by id;
  endwhile
 end fork
fork again
 :Get sales by id book;
 if ( exits sales? ) then (yes) 
  : add info sales;
 else (no)
  : empty;
 endif
end fork
stop
@enduml

PlantUML version 1.2017.18(Fri Oct 06 18:56:32 CEST 2017)
(GPL source distribution)
Java Runtime: Java(TM) SE Runtime Environment
JVM: Java HotSpot(TM) Client VM
Java Version: 1.8.0_101-b13
Operating System: Linux
OS Version: 3.16.0-4-686-pae
Default Encoding: UTF-8
Language: es
Country: ES
--></g></svg>