<?xml version="1.0" encoding="UTF-8" standalone="no"?><svg xmlns="http://www.w3.org/2000/svg" xmlns:xlink="http://www.w3.org/1999/xlink" contentScriptType="application/ecmascript" contentStyleType="text/css" height="379px" preserveAspectRatio="none" style="width:701px;height:379px;" version="1.1" viewBox="0 0 701 379" width="701px" zoomAndPan="magnify"><defs><filter height="300%" id="fcojs8wgpa1vv" width="300%" x="-1" y="-1"><feGaussianBlur result="blurOut" stdDeviation="2.0"/><feColorMatrix in="blurOut" result="blurOut2" type="matrix" values="0 0 0 0 0 0 0 0 0 0 0 0 0 0 0 0 0 0 .4 0"/><feOffset dx="4.0" dy="4.0" in="blurOut2" result="blurOut3"/><feBlend in="SourceGraphic" in2="blurOut3" mode="normal"/></filter></defs><g><ellipse cx="350" cy="20" fill="#000000" filter="url(#fcojs8wgpa1vv)" rx="10" ry="10" style="stroke: none; stroke-width: 1.0;"/><rect fill="#000000" filter="url(#fcojs8wgpa1vv)" height="6" rx="2.5" ry="2.5" style="stroke: #000000; stroke-width: 1.0;" width="680" x="10" y="50"/><rect fill="#FEFECE" filter="url(#fcojs8wgpa1vv)" height="33.9688" rx="12.5" ry="12.5" style="stroke: #A80036; stroke-width: 1.5;" width="145" x="150" y="76"/><text fill="#000000" font-family="sans-serif" font-size="12" lengthAdjust="spacingAndGlyphs" textLength="125" x="160" y="97.1387">Get book by id book</text><rect fill="#000000" filter="url(#fcojs8wgpa1vv)" height="6" rx="2.5" ry="2.5" style="stroke: #000000; stroke-width: 1.0;" width="397" x="24" y="144.9688"/><rect fill="#FEFECE" filter="url(#fcojs8wgpa1vv)" height="33.9688" rx="12.5" ry="12.5" style="stroke: #A80036; stroke-width: 1.5;" width="167" x="38" y="206.9688"/><text fill="#000000" font-family="sans-serif" font-size="12" lengthAdjust="spacingAndGlyphs" textLength="147" x="48" y="228.1074">Get author by id author</text><rect fill="#FEFECE" filter="url(#fcojs8wgpa1vv)" height="33.9688" rx="12.5" ry="12.5" style="stroke: #A80036; stroke-width: 1.5;" width="128" x="262" y="218.9688"/><text fill="#000000" font-family="sans-serif" font-size="12" lengthAdjust="spacingAndGlyphs" textLength="108" x="272" y="240.1074">Get chapter by id</text><polygon fill="#FEFECE" filter="url(#fcojs8wgpa1vv)" points="269,170.9688,383,170.9688,395,182.9688,383,194.9688,269,194.9688,257,182.9688,269,170.9688" style="stroke: #A80036; stroke-width: 1.5;"/><text fill="#000000" font-family="sans-serif" font-size="11" lengthAdjust="spacingAndGlyphs" textLength="114" x="269" y="186.7769">For every id chapter</text><rect fill="#000000" filter="url(#fcojs8wgpa1vv)" height="6" rx="2.5" ry="2.5" style="stroke: #000000; stroke-width: 1.0;" width="397" x="24" y="296.9375"/><rect fill="#FEFECE" filter="url(#fcojs8wgpa1vv)" height="33.9688" rx="12.5" ry="12.5" style="stroke: #A80036; stroke-width: 1.5;" width="147" x="501.5" y="106"/><text fill="#000000" font-family="sans-serif" font-size="12" lengthAdjust="spacingAndGlyphs" textLength="127" x="511.5" y="127.1387">Get sales by id book</text><polygon fill="#FEFECE" filter="url(#fcojs8wgpa1vv)" points="537,174.9688,613,174.9688,625,186.9688,613,198.9688,537,198.9688,525,186.9688,537,174.9688" style="stroke: #A80036; stroke-width: 1.5;"/><text fill="#000000" font-family="sans-serif" font-size="11" lengthAdjust="spacingAndGlyphs" textLength="68" x="541" y="190.7769">exits sales?</text><text fill="#000000" font-family="sans-serif" font-size="11" lengthAdjust="spacingAndGlyphs" textLength="20" x="505" y="184.3745">yes</text><text fill="#000000" font-family="sans-serif" font-size="11" lengthAdjust="spacingAndGlyphs" textLength="14" x="625" y="184.3745">no</text><rect fill="#FEFECE" filter="url(#fcojs8wgpa1vv)" height="33.9688" rx="12.5" ry="12.5" style="stroke: #A80036; stroke-width: 1.5;" width="112" x="459" y="208.9688"/><text fill="#000000" font-family="sans-serif" font-size="12" lengthAdjust="spacingAndGlyphs" textLength="88" x="473" y="230.1074">add info sales</text><rect fill="#FEFECE" filter="url(#fcojs8wgpa1vv)" height="33.9688" rx="12.5" ry="12.5" style="stroke: #A80036; stroke-width: 1.5;" width="62" x="604" y="208.9688"/><text fill="#000000" font-family="sans-serif" font-size="12" lengthAdjust="spacingAndGlyphs" textLength="38" x="618" y="230.1074">empty</text><polygon fill="#FEFECE" filter="url(#fcojs8wgpa1vv)" points="575,248.9375,587,260.9375,575,272.9375,563,260.9375,575,248.9375" style="stroke: #A80036; stroke-width: 1.5;"/><rect fill="#000000" filter="url(#fcojs8wgpa1vv)" height="6" rx="2.5" ry="2.5" style="stroke: #000000; stroke-width: 1.0;" width="680" x="10" y="322.9375"/><ellipse cx="350" cy="358.9375" fill="none" filter="url(#fcojs8wgpa1vv)" rx="10" ry="10" style="stroke: #000000; stroke-width: 1.0;"/><ellipse cx="350.5" cy="359.4375" fill="#000000" filter="url(#fcojs8wgpa1vv)" rx="6" ry="6" style="stroke: none; stroke-width: 1.0;"/><line style="stroke: #A80036; stroke-width: 1.5;" x1="326" x2="326" y1="194.9688" y2="218.9688"/><polygon fill="#A80036" points="322,208.9688,326,218.9688,330,208.9688,326,212.9688" style="stroke: #A80036; stroke-width: 1.0;"/><line style="stroke: #A80036; stroke-width: 1.5;" x1="326" x2="326" y1="252.9375" y2="264.9375"/><line style="stroke: #A80036; stroke-width: 1.5;" x1="326" x2="407" y1="264.9375" y2="264.9375"/><polygon fill="#A80036" points="403,233.9531,407,223.9531,411,233.9531,407,229.9531" style="stroke: #A80036; stroke-width: 1.5;"/><line style="stroke: #A80036; stroke-width: 1.5;" x1="407" x2="407" y1="182.9688" y2="264.9375"/><line style="stroke: #A80036; stroke-width: 1.5;" x1="407" x2="395" y1="182.9688" y2="182.9688"/><polygon fill="#A80036" points="405,178.9688,395,182.9688,405,186.9688,401,182.9688" style="stroke: #A80036; stroke-width: 1.0;"/><line style="stroke: #A80036; stroke-width: 1.5;" x1="257" x2="245" y1="182.9688" y2="182.9688"/><polygon fill="#A80036" points="241,219.9531,245,229.9531,249,219.9531,245,223.9531" style="stroke: #A80036; stroke-width: 1.5;"/><line style="stroke: #A80036; stroke-width: 1.5;" x1="245" x2="245" y1="182.9688" y2="276.9375"/><line style="stroke: #A80036; stroke-width: 1.5;" x1="245" x2="326" y1="276.9375" y2="276.9375"/><line style="stroke: #A80036; stroke-width: 1.5;" x1="326" x2="326" y1="276.9375" y2="296.9375"/><polygon fill="#A80036" points="322,286.9375,326,296.9375,330,286.9375,326,290.9375" style="stroke: #A80036; stroke-width: 1.0;"/><line style="stroke: #A80036; stroke-width: 1.5;" x1="121.5" x2="121.5" y1="150.9688" y2="206.9688"/><polygon fill="#A80036" points="117.5,196.9688,121.5,206.9688,125.5,196.9688,121.5,200.9688" style="stroke: #A80036; stroke-width: 1.0;"/><line style="stroke: #A80036; stroke-width: 1.5;" x1="326" x2="326" y1="150.9688" y2="170.9688"/><polygon fill="#A80036" points="322,160.9688,326,170.9688,330,160.9688,326,164.9688" style="stroke: #A80036; stroke-width: 1.0;"/><line style="stroke: #A80036; stroke-width: 1.5;" x1="121.5" x2="121.5" y1="240.9375" y2="296.9375"/><polygon fill="#A80036" points="117.5,286.9375,121.5,296.9375,125.5,286.9375,121.5,290.9375" style="stroke: #A80036; stroke-width: 1.0;"/><line style="stroke: #A80036; stroke-width: 1.5;" x1="222.5" x2="222.5" y1="109.9688" y2="144.9688"/><polygon fill="#A80036" points="218.5,134.9688,222.5,144.9688,226.5,134.9688,222.5,138.9688" style="stroke: #A80036; stroke-width: 1.0;"/><line style="stroke: #A80036; stroke-width: 1.5;" x1="525" x2="515" y1="186.9688" y2="186.9688"/><line style="stroke: #A80036; stroke-width: 1.5;" x1="515" x2="515" y1="186.9688" y2="208.9688"/><polygon fill="#A80036" points="511,198.9688,515,208.9688,519,198.9688,515,202.9688" style="stroke: #A80036; stroke-width: 1.0;"/><line style="stroke: #A80036; stroke-width: 1.5;" x1="625" x2="635" y1="186.9688" y2="186.9688"/><line style="stroke: #A80036; stroke-width: 1.5;" x1="635" x2="635" y1="186.9688" y2="208.9688"/><polygon fill="#A80036" points="631,198.9688,635,208.9688,639,198.9688,635,202.9688" style="stroke: #A80036; stroke-width: 1.0;"/><line style="stroke: #A80036; stroke-width: 1.5;" x1="515" x2="515" y1="242.9375" y2="260.9375"/><line style="stroke: #A80036; stroke-width: 1.5;" x1="515" x2="563" y1="260.9375" y2="260.9375"/><polygon fill="#A80036" points="553,256.9375,563,260.9375,553,264.9375,557,260.9375" style="stroke: #A80036; stroke-width: 1.0;"/><line style="stroke: #A80036; stroke-width: 1.5;" x1="635" x2="635" y1="242.9375" y2="260.9375"/><line style="stroke: #A80036; stroke-width: 1.5;" x1="635" x2="587" y1="260.9375" y2="260.9375"/><polygon fill="#A80036" points="597,256.9375,587,260.9375,597,264.9375,593,260.9375" style="stroke: #A80036; stroke-width: 1.0;"/><line style="stroke: #A80036; stroke-width: 1.5;" x1="575" x2="575" y1="139.9688" y2="174.9688"/><polygon fill="#A80036" points="571,164.9688,575,174.9688,579,164.9688,575,168.9688" style="stroke: #A80036; stroke-width: 1.0;"/><line style="stroke: #A80036; stroke-width: 1.5;" x1="222.5" x2="222.5" y1="56" y2="76"/><polygon fill="#A80036" points="218.5,66,222.5,76,226.5,66,222.5,70" style="stroke: #A80036; stroke-width: 1.0;"/><line style="stroke: #A80036; stroke-width: 1.5;" x1="575" x2="575" y1="56" y2="106"/><polygon fill="#A80036" points="571,96,575,106,579,96,575,100" style="stroke: #A80036; stroke-width: 1.0;"/><line style="stroke: #A80036; stroke-width: 1.5;" x1="222.5" x2="222.5" y1="302.9375" y2="322.9375"/><polygon fill="#A80036" points="218.5,312.9375,222.5,322.9375,226.5,312.9375,222.5,316.9375" style="stroke: #A80036; stroke-width: 1.0;"/><line style="stroke: #A80036; stroke-width: 1.5;" x1="575" x2="575" y1="272.9375" y2="322.9375"/><polygon fill="#A80036" points="571,312.9375,575,322.9375,579,312.9375,575,316.9375" style="stroke: #A80036; stroke-width: 1.0;"/><line style="stroke: #A80036; stroke-width: 1.5;" x1="350" x2="350" y1="30" y2="50"/><polygon fill="#A80036" points="346,40,350,50,354,40,350,44" style="stroke: #A80036; stroke-width: 1.0;"/><line style="stroke: #A80036; stroke-width: 1.5;" x1="350" x2="350" y1="328.9375" y2="348.9375"/><polygon fill="#A80036" points="346,338.9375,350,348.9375,354,338.9375,350,342.9375" style="stroke: #A80036; stroke-width: 1.0;"/><!--
@startuml
start
fork
 :Get book by id book;
 fork
  :Get author by id author;
 fork again
  while (For every id chapter)
  :Get chapter by id;
  endwhile
 end fork
fork again
 :Get sales by id book;
 if ( exits sales? ) then (yes) 
  : add info sales;
 else (no)
  : empty;
 endif
end fork
stop
@enduml

PlantUML version 1.2017.18(Fri Oct 06 18:56:32 CEST 2017)
(GPL source distribution)
Java Runtime: Java(TM) SE Runtime Environment
JVM: Java HotSpot(TM) Client VM
Java Version: 1.8.0_101-b13
Operating System: Linux
OS Version: 3.16.0-4-686-pae
Default Encoding: UTF-8
Language: es
Country: ES
--></g></svg>