<?xml version="1.0" encoding="UTF-8" standalone="no"?><svg xmlns="http://www.w3.org/2000/svg" xmlns:xlink="http://www.w3.org/1999/xlink" contentScriptType="application/ecmascript" contentStyleType="text/css" height="362px" preserveAspectRatio="none" style="width:621px;height:362px;" version="1.1" viewBox="0 0 621 362" width="621px" zoomAndPan="magnify"><defs><filter height="300%" id="f11kr0bduiq8r4" width="300%" x="-1" y="-1"><feGaussianBlur result="blurOut" stdDeviation="2.0"/><feColorMatrix in="blurOut" result="blurOut2" type="matrix" values="0 0 0 0 0 0 0 0 0 0 0 0 0 0 0 0 0 0 .4 0"/><feOffset dx="4.0" dy="4.0" in="blurOut2" result="blurOut3"/><feBlend in="SourceGraphic" in2="blurOut3" mode="normal"/></filter></defs><g><ellipse cx="310" cy="20" fill="#000000" filter="url(#f11kr0bduiq8r4)" rx="10" ry="10" style="stroke: none; stroke-width: 1.0;"/><rect fill="#000000" filter="url(#f11kr0bduiq8r4)" height="6" rx="2.5" ry="2.5" style="stroke: #000000; stroke-width: 1.0;" width="600" x="10" y="50"/><rect fill="#FEFECE" filter="url(#f11kr0bduiq8r4)" height="33.9688" rx="12.5" ry="12.5" style="stroke: #A80036; stroke-width: 1.5;" width="145" x="150" y="76"/><text fill="#000000" font-family="sans-serif" font-size="12" lengthAdjust="spacingAndGlyphs" textLength="125" x="160" y="97.1387">Get book by id book</text><rect fill="#000000" filter="url(#f11kr0bduiq8r4)" height="6" rx="2.5" ry="2.5" style="stroke: #000000; stroke-width: 1.0;" width="397" x="24" y="129.9688"/><rect fill="#FEFECE" filter="url(#f11kr0bduiq8r4)" height="33.9688" rx="12.5" ry="12.5" style="stroke: #A80036; stroke-width: 1.5;" width="167" x="38" y="191.9688"/><text fill="#000000" font-family="sans-serif" font-size="12" lengthAdjust="spacingAndGlyphs" textLength="147" x="48" y="213.1074">Get author by id author</text><rect fill="#FEFECE" filter="url(#f11kr0bduiq8r4)" height="33.9688" rx="12.5" ry="12.5" style="stroke: #A80036; stroke-width: 1.5;" width="128" x="262" y="203.9688"/><text fill="#000000" font-family="sans-serif" font-size="12" lengthAdjust="spacingAndGlyphs" textLength="108" x="272" y="225.1074">Get chapter by id</text><polygon fill="#FEFECE" filter="url(#f11kr0bduiq8r4)" points="269,155.9688,383,155.9688,395,167.9688,383,179.9688,269,179.9688,257,167.9688,269,155.9688" style="stroke: #A80036; stroke-width: 1.5;"/><text fill="#000000" font-family="sans-serif" font-size="11" lengthAdjust="spacingAndGlyphs" textLength="114" x="269" y="171.7769">For every id chapter</text><rect fill="#000000" filter="url(#f11kr0bduiq8r4)" height="6" rx="2.5" ry="2.5" style="stroke: #000000; stroke-width: 1.0;" width="397" x="24" y="279.9375"/><rect fill="#FEFECE" filter="url(#f11kr0bduiq8r4)" height="33.9688" rx="12.5" ry="12.5" style="stroke: #A80036; stroke-width: 1.5;" width="147" x="449" y="157.4844"/><text fill="#000000" font-family="sans-serif" font-size="12" lengthAdjust="spacingAndGlyphs" textLength="127" x="459" y="178.623">Get sales by id book</text><rect fill="#000000" filter="url(#f11kr0bduiq8r4)" height="6" rx="2.5" ry="2.5" style="stroke: #000000; stroke-width: 1.0;" width="600" x="10" y="305.9375"/><ellipse cx="310" cy="341.9375" fill="none" filter="url(#f11kr0bduiq8r4)" rx="10" ry="10" style="stroke: #000000; stroke-width: 1.0;"/><ellipse cx="310.5" cy="342.4375" fill="#000000" filter="url(#f11kr0bduiq8r4)" rx="6" ry="6" style="stroke: none; stroke-width: 1.0;"/><line style="stroke: #A80036; stroke-width: 1.5;" x1="326" x2="326" y1="179.9688" y2="203.9688"/><polygon fill="#A80036" points="322,193.9688,326,203.9688,330,193.9688,326,197.9688" style="stroke: #A80036; stroke-width: 1.0;"/><line style="stroke: #A80036; stroke-width: 1.5;" x1="326" x2="326" y1="237.9375" y2="247.9375"/><line style="stroke: #A80036; stroke-width: 1.5;" x1="326" x2="407" y1="247.9375" y2="247.9375"/><polygon fill="#A80036" points="403,218.9531,407,208.9531,411,218.9531,407,214.9531" style="stroke: #A80036; stroke-width: 1.5;"/><line style="stroke: #A80036; stroke-width: 1.5;" x1="407" x2="407" y1="167.9688" y2="247.9375"/><line style="stroke: #A80036; stroke-width: 1.5;" x1="407" x2="395" y1="167.9688" y2="167.9688"/><polygon fill="#A80036" points="405,163.9688,395,167.9688,405,171.9688,401,167.9688" style="stroke: #A80036; stroke-width: 1.0;"/><line style="stroke: #A80036; stroke-width: 1.5;" x1="257" x2="245" y1="167.9688" y2="167.9688"/><polygon fill="#A80036" points="241,204.9531,245,214.9531,249,204.9531,245,208.9531" style="stroke: #A80036; stroke-width: 1.5;"/><line style="stroke: #A80036; stroke-width: 1.5;" x1="245" x2="245" y1="167.9688" y2="259.9375"/><line style="stroke: #A80036; stroke-width: 1.5;" x1="245" x2="326" y1="259.9375" y2="259.9375"/><line style="stroke: #A80036; stroke-width: 1.5;" x1="326" x2="326" y1="259.9375" y2="279.9375"/><polygon fill="#A80036" points="322,269.9375,326,279.9375,330,269.9375,326,273.9375" style="stroke: #A80036; stroke-width: 1.0;"/><line style="stroke: #A80036; stroke-width: 1.5;" x1="121.5" x2="121.5" y1="135.9688" y2="191.9688"/><polygon fill="#A80036" points="117.5,181.9688,121.5,191.9688,125.5,181.9688,121.5,185.9688" style="stroke: #A80036; stroke-width: 1.0;"/><line style="stroke: #A80036; stroke-width: 1.5;" x1="326" x2="326" y1="135.9688" y2="155.9688"/><polygon fill="#A80036" points="322,145.9688,326,155.9688,330,145.9688,326,149.9688" style="stroke: #A80036; stroke-width: 1.0;"/><line style="stroke: #A80036; stroke-width: 1.5;" x1="121.5" x2="121.5" y1="225.9375" y2="279.9375"/><polygon fill="#A80036" points="117.5,269.9375,121.5,279.9375,125.5,269.9375,121.5,273.9375" style="stroke: #A80036; stroke-width: 1.0;"/><line style="stroke: #A80036; stroke-width: 1.5;" x1="222.5" x2="222.5" y1="109.9688" y2="129.9688"/><polygon fill="#A80036" points="218.5,119.9688,222.5,129.9688,226.5,119.9688,222.5,123.9688" style="stroke: #A80036; stroke-width: 1.0;"/><line style="stroke: #A80036; stroke-width: 1.5;" x1="222.5" x2="222.5" y1="56" y2="76"/><polygon fill="#A80036" points="218.5,66,222.5,76,226.5,66,222.5,70" style="stroke: #A80036; stroke-width: 1.0;"/><line style="stroke: #A80036; stroke-width: 1.5;" x1="522.5" x2="522.5" y1="56" y2="157.4844"/><polygon fill="#A80036" points="518.5,147.4844,522.5,157.4844,526.5,147.4844,522.5,151.4844" style="stroke: #A80036; stroke-width: 1.0;"/><line style="stroke: #A80036; stroke-width: 1.5;" x1="222.5" x2="222.5" y1="285.9375" y2="305.9375"/><polygon fill="#A80036" points="218.5,295.9375,222.5,305.9375,226.5,295.9375,222.5,299.9375" style="stroke: #A80036; stroke-width: 1.0;"/><line style="stroke: #A80036; stroke-width: 1.5;" x1="522.5" x2="522.5" y1="191.4531" y2="305.9375"/><polygon fill="#A80036" points="518.5,295.9375,522.5,305.9375,526.5,295.9375,522.5,299.9375" style="stroke: #A80036; stroke-width: 1.0;"/><line style="stroke: #A80036; stroke-width: 1.5;" x1="310" x2="310" y1="30" y2="50"/><polygon fill="#A80036" points="306,40,310,50,314,40,310,44" style="stroke: #A80036; stroke-width: 1.0;"/><line style="stroke: #A80036; stroke-width: 1.5;" x1="310" x2="310" y1="311.9375" y2="331.9375"/><polygon fill="#A80036" points="306,321.9375,310,331.9375,314,321.9375,310,325.9375" style="stroke: #A80036; stroke-width: 1.0;"/><!--
@startuml
start
fork
 :Get book by id book;
 fork
  :Get author by id author;
 fork again
  while (For every id chapter)
  :Get chapter by id;
  endwhile
 end fork
fork again
 :Get sales by id book;
end fork
stop
@enduml

PlantUML version 1.2017.18(Fri Oct 06 18:56:32 CEST 2017)
(GPL source distribution)
Java Runtime: Java(TM) SE Runtime Environment
JVM: Java HotSpot(TM) Client VM
Java Version: 1.8.0_101-b13
Operating System: Linux
OS Version: 3.16.0-4-686-pae
Default Encoding: UTF-8
Language: es
Country: ES
--></g></svg>